<svg width="80" height="46" viewBox="0 0 80 46" fill="none" xmlns="http://www.w3.org/2000/svg">
<path d="M67.6553 4.4608H64.8659V2.73236C64.8659 1.4308 63.8108 0.375488 62.5091 0.375488H2.35688C1.05531 0.375488 0 1.43064 0 2.73236V15.1711C0 26.1622 6.08359 35.8267 15.217 41.2864H2.35828C1.05672 41.2864 0.00140626 42.3416 0.00140626 43.6433C0.00140626 44.945 1.05641 46.0002 2.35828 46.0002H62.5092C63.8108 46.0002 64.8661 44.945 64.8661 43.6433C64.8661 42.3416 63.8109 41.2864 62.5092 41.2864H49.6491C54.8428 38.1817 59.0502 33.7178 61.7133 28.4225H67.6555C74.2617 28.4225 79.6364 23.0478 79.6364 16.4416C79.6364 9.83533 74.2616 4.4608 67.6553 4.4608ZM60.1524 15.1711C60.1522 29.5711 47.7174 41.2864 32.433 41.2864C17.1486 41.2864 4.71375 29.5711 4.71375 15.1711V5.08924H60.1522V15.1711H60.1524ZM67.6553 23.7089H63.5997C64.4233 20.9966 64.8659 18.1321 64.8659 15.1711V9.17424H67.6553C71.6625 9.17424 74.9227 12.4344 74.9227 16.4416C74.9227 20.4488 71.6625 23.7089 67.6553 23.7089Z" fill="#2352DE"/>
</svg>
