<svg width="92" height="43" viewBox="0 0 92 43" fill="none" xmlns="http://www.w3.org/2000/svg">
<path d="M79.6591 0.309082H75.4976C70.5938 0.309082 66.3606 3.2063 64.4316 7.36772C60.4602 3.0323 54.7556 0.309082 48.4267 0.309082H43.412C37.083 0.309082 31.3784 3.0323 27.407 7.36772C25.4778 3.2063 21.2446 0.309082 16.3408 0.309082H12.1794C5.46367 0.309082 0 5.73974 0 12.4149V32.0041C0 34.902 2.36663 37.2597 5.27569 37.2597H21.7289C22.0048 40.4705 24.7047 42.9996 27.986 42.9996H63.8526C67.1337 42.9996 69.8336 40.4705 70.1097 37.2597H86.3749C89.3877 37.2597 91.8386 34.8184 91.8386 31.8176V12.4149C91.8384 5.73974 86.3748 0.309082 79.6591 0.309082ZM5.38116 12.4149C5.38116 8.70691 8.43084 5.69024 12.1794 5.69024H16.3408C20.0893 5.69024 23.139 8.70691 23.139 12.4149V14.2572C21.3297 18.9682 21.704 21.7916 21.704 31.8785H5.38116V12.4149ZM64.7533 36.7178C64.7533 37.2145 64.3493 37.6184 63.8526 37.6184H27.9858C27.4891 37.6184 27.0852 37.2143 27.0852 36.7178V22.017C27.0852 13.0144 34.4093 5.69024 43.4118 5.69024H48.4265C57.4291 5.69024 64.7533 13.0144 64.7533 22.0169V36.7178ZM86.4573 31.8176C86.4573 31.9103 87.4603 31.8785 70.1344 31.8785C70.1344 21.7169 70.5059 18.9605 68.6994 14.2572V12.4149C68.6994 8.70691 71.7491 5.69024 75.4976 5.69024H79.6591C83.4076 5.69024 86.4573 8.70691 86.4573 12.4149V31.8176Z" fill="#2352DE"/>
</svg>
